<?xml version="1.0" standalone="no"?>
<!DOCTYPE svg PUBLIC "-//W3C//DTD SVG 20010904//EN"
 "http://www.w3.org/TR/2001/REC-SVG-20010904/DTD/svg10.dtd">
<svg version="1.0" xmlns="http://www.w3.org/2000/svg"
 width="415.000000pt" height="122.000000pt" viewBox="0 0 415.000000 122.000000"
 preserveAspectRatio="xMidYMid meet">
<metadata>
Created by potrace 1.16, written by Peter Selinger 2001-2019
</metadata>
<g transform="translate(0.000000,122.000000) scale(0.100000,-0.100000)"
fill="#000000" stroke="none">
<path d="M3752 1210 c-24 -5 -57 -16 -74 -24 -17 -9 -34 -13 -39 -10 -5 2 -22
-2 -39 -11 -30 -16 -52 -49 -64 -97 l-6 -28 -93 0 -92 0 0 -227 0 -228 -97 -3
-98 -3 0 231 0 230 -95 0 -95 0 0 54 c0 30 -4 58 -10 61 -6 4 -10 -17 -10 -54
l0 -61 -166 0 -166 0 6 -31 c3 -17 6 -39 6 -47 0 -12 3 -13 12 -4 9 9 79 12
255 12 l243 0 2 -227 3 -228 113 -3 112 -3 10 27 c6 16 10 112 10 228 l-2 201
79 3 79 3 12 -48 c16 -60 52 -107 100 -133 l37 -19 -72 -1 -72 0 -7 -36 c-16
-87 54 -185 160 -223 89 -31 242 -27 324 8 175 78 174 306 -2 408 -18 11 -11
12 47 13 l67 0 0 32 c0 17 -14 60 -31 95 -47 97 -115 139 -236 147 -37 3 -87
1 -111 -4z m93 -491 c17 -6 15 -8 -11 -8 -16 -1 -39 6 -50 14 -18 14 -17 15
11 9 17 -4 39 -11 50 -15z"/>
<path d="M688 1157 c-5 -10 -8 -58 -9 -105 0 -48 -3 -79 -7 -70 -4 10 -7 -24
-7 -75 0 -84 -3 -98 -33 -159 -56 -115 -159 -178 -287 -178 -179 0 -314 133
-324 320 -5 94 -19 60 -20 -50 -1 -66 3 -84 33 -146 60 -126 171 -197 311
-197 138 -1 261 74 317 192 l25 53 6 -40 c7 -44 59 -125 97 -154 63 -45 248
-62 351 -32 73 22 119 61 154 131 28 54 30 67 33 191 l4 132 74 0 74 0 0 -225
c0 -263 -16 -238 145 -233 l100 3 3 228 2 227 80 0 80 0 2 -227 3 -228 529 -3
c417 -2 531 0 538 10 11 18 10 166 -1 172 -13 8 -21 -19 -21 -70 l0 -44 -260
0 -260 0 0 283 c0 264 -8 355 -24 277 -9 -49 -7 -385 3 -395 5 -6 7 -45 4 -87
l-6 -78 -243 0 -244 0 0 293 c0 192 -4 287 -10 277 -5 -8 -10 -36 -10 -62 l0
-48 -95 0 -95 0 0 -230 0 -230 -95 0 -95 0 0 230 0 230 -95 0 -95 0 0 48 c0
26 -5 54 -10 62 -6 10 -10 -47 -10 -171 0 -212 -10 -262 -67 -328 -48 -57
-105 -76 -228 -76 -139 1 -197 23 -252 97 -38 53 -46 94 -52 303 -3 110 -9
192 -13 182z"/>
<path d="M906 1155 c-3 -9 -6 -94 -6 -189 0 -136 3 -176 15 -192 13 -17 14 2
15 176 0 183 -8 247 -24 205z"/>
<path d="M1080 970 c0 -132 3 -199 10 -195 6 4 10 80 10 195 0 115 -4 191 -10
195 -7 4 -10 -63 -10 -195z"/>
<path d="M2117 1164 c-4 -4 -7 -101 -7 -216 0 -163 3 -209 13 -206 9 4 13 56
15 208 2 186 -2 232 -21 214z"/>
<path d="M306 1020 c-52 -16 -96 -73 -96 -125 0 -21 25 -85 33 -85 1 0 2 19 3
41 1 128 203 130 204 2 1 -27 1 -27 15 -9 31 42 6 126 -47 159 -32 20 -77 27
-112 17z"/>
<path d="M2946 913 c-3 -3 -6 -26 -6 -50 l0 -43 -166 0 -167 0 7 -42 c7 -45
16 -61 23 -40 4 9 45 12 163 12 181 0 170 -6 170 95 0 59 -8 83 -24 68z"/>
<path d="M3543 425 c-10 -8 -36 -15 -58 -15 -22 0 -45 -4 -51 -8 -16 -10 -31
-64 -44 -157 -14 -96 -53 -183 -84 -187 -15 -2 -21 -10 -21 -28 0 -21 5 -26
32 -28 26 -3 35 2 49 25 10 15 20 30 22 33 2 3 8 -3 13 -13 13 -23 63 -22 118
3 l44 20 58 -21 c39 -15 69 -19 91 -15 18 4 48 6 65 6 18 0 46 6 63 15 32 17
50 13 50 -11 0 -9 11 -14 36 -14 27 0 37 5 41 20 6 24 10 24 43 5 32 -18 74
-19 89 -2 10 12 13 50 10 127 -7 225 -8 230 -55 230 -19 0 -34 4 -34 9 0 17
-33 21 -50 6 -21 -19 -67 -19 -86 0 -9 8 -19 15 -24 15 -5 0 -15 -7 -24 -15
-8 -8 -28 -15 -44 -15 -25 0 -30 -5 -36 -32 -3 -17 -4 -52 -1 -77 3 -25 1 -59
-4 -76 -8 -26 -9 -20 -11 40 0 43 -8 83 -18 105 -16 33 -20 35 -75 38 -31 2
-57 7 -57 11 0 16 -28 20 -47 6z"/>
<path d="M2176 393 c-4 -4 -31 -10 -59 -14 l-52 -6 63 -2 c49 -1 62 2 62 14 0
17 -3 18 -14 8z"/>
<path d="M3136 384 c-3 -9 -6 -63 -6 -120 0 -86 3 -104 15 -104 12 0 15 19 15
114 0 106 -9 148 -24 110z"/>
<path d="M687 368 c-12 -48 22 -87 43 -48 16 29 12 50 -9 50 -11 0 -21 6 -23
12 -3 7 -8 1 -11 -14z"/>
<path d="M3068 384 c-5 -4 -8 -56 -8 -116 0 -80 3 -108 13 -108 9 0 11 22 9
82 -4 126 -6 151 -14 142z"/>
<path d="M1727 374 c-13 -14 -7 -54 8 -54 16 0 18 14 6 43 -3 10 -10 15 -14
11z"/>
<path d="M780 344 c-6 -14 -10 -26 -10 -27 0 -1 15 -2 32 -1 28 1 33 5 36 27
3 23 0 27 -23 27 -18 0 -28 -7 -35 -26z"/>
<path d="M1419 350 c-3 -14 -2 -36 2 -50 5 -22 7 -23 14 -7 4 10 3 32 -2 50
-9 31 -9 31 -14 7z"/>
<path d="M1636 358 c-3 -7 -6 -24 -9 -38 -2 -14 -7 -32 -11 -40 -5 -12 2 -15
36 -15 75 -1 79 -6 76 -82 l-3 -68 -70 0 -70 0 0 73 c0 39 -3 72 -7 72 -5 0
-8 -31 -8 -69 0 -75 -12 -95 -52 -89 -29 4 -36 34 -8 41 23 6 27 27 5 27 -7 0
-18 8 -23 17 -8 13 -13 7 -24 -32 -14 -52 -29 -64 -49 -42 -11 11 -21 12 -42
4 -45 -15 -159 -3 -208 22 -41 22 -44 22 -56 5 -7 -10 -13 -22 -13 -27 0 -5
-13 -7 -30 -4 -29 6 -30 5 -30 -27 0 -46 50 -64 84 -30 14 13 21 14 49 4 17
-7 75 -14 127 -15 52 -2 108 -6 123 -10 17 -5 33 -3 39 3 7 7 17 8 27 3 9 -5
70 -6 136 -3 109 6 121 9 129 28 9 20 11 18 30 -20 17 -34 27 -42 54 -44 27
-3 35 1 39 17 5 20 13 21 167 23 88 1 191 1 227 -1 65 -3 67 -2 108 37 29 28
44 36 47 27 3 -7 22 -25 42 -39 l37 -25 375 0 c214 0 381 4 390 9 12 7 16 38
20 132 5 108 7 120 18 95 7 -16 12 -54 13 -85 1 -56 1 -57 14 -27 26 57 13
156 -25 190 -34 31 -44 6 -50 -123 l-5 -117 -147 -3 -148 -3 -1 108 c0 60 -4
117 -9 128 -5 11 -9 16 -9 10 -1 -5 -5 -4 -10 4 -7 10 -13 11 -31 1 l-23 -12
24 -19 c18 -15 21 -21 11 -27 -7 -5 -24 -7 -38 -4 -14 2 -24 0 -24 -7 0 -6 14
-11 30 -11 23 0 30 -4 30 -20 0 -16 -7 -20 -37 -21 -37 -1 -37 -2 -8 -8 17 -3
30 -13 30 -21 0 -11 -16 -17 -60 -21 l-60 -6 58 -1 c58 -2 71 -12 40 -32 -14
-8 -8 -9 25 -6 31 4 42 1 42 -8 0 -22 -22 -25 -192 -25 -90 0 -180 0 -201 0
-32 -1 -44 5 -88 49 -28 28 -52 50 -53 48 -1 -2 -10 -15 -19 -30 -24 -38 -83
-81 -99 -72 -7 5 -21 9 -30 9 -27 2 -30 9 -19 56 13 56 14 169 1 189 -7 11
-10 3 -11 -30 -1 -34 -3 -39 -8 -21 -6 23 -10 24 -76 22 -82 -3 -102 -11 -28
-11 55 0 63 -8 63 -60 0 -52 -8 -60 -64 -62 l-51 -1 54 -6 c76 -8 80 -31 7
-31 -31 0 -56 -3 -56 -7 0 -5 29 -6 65 -5 l65 4 0 51 c0 29 5 59 10 67 7 10
10 -12 10 -73 0 -48 -3 -86 -7 -86 -5 1 -86 1 -180 0 l-173 -1 0 -26 c0 -43
-31 -25 -62 36 -15 30 -30 81 -34 112 -6 54 -7 56 -29 46 -36 -16 -60 3 -60
49 0 28 -5 38 -18 41 -9 2 -19 -2 -21 -10z"/>
<path d="M1833 343 c-27 -40 -29 -147 -5 -203 l19 -45 -5 52 c-2 29 -1 73 2
98 6 39 10 44 22 34 9 -7 14 -31 14 -70 0 -48 3 -59 16 -59 13 0 14 3 5 13
-16 21 -3 27 58 29 l56 1 -55 6 c-61 7 -68 18 -55 87 6 33 7 34 58 36 48 1 47
2 -18 7 -59 5 -70 9 -69 24 2 26 -23 20 -43 -10z"/>
<path d="M2550 359 c-8 -5 -40 -8 -70 -7 -50 3 -55 1 -52 -17 2 -11 5 -21 5
-22 1 0 34 -3 72 -5 67 -3 70 -2 73 21 5 29 -8 43 -28 30z"/>
<path d="M2588 323 c-2 -27 -7 -48 -13 -49 -5 0 -17 -4 -25 -7 -8 -4 -37 -8
-64 -9 l-49 -3 28 -33 c25 -29 33 -33 69 -30 36 3 41 0 46 -22 5 -24 9 -25 80
-26 41 -1 59 0 40 2 -97 12 -109 31 -22 37 l57 3 -67 2 c-52 2 -68 5 -68 16 0
16 34 31 49 22 5 -3 4 5 -2 18 -10 21 -13 22 -23 8 -10 -13 -15 -14 -27 -4
-13 11 -13 16 -1 40 16 31 19 82 5 82 -6 0 -11 -21 -13 -47z"/>
<path d="M2663 363 c9 -2 23 -2 30 0 6 3 -1 5 -18 5 -16 0 -22 -2 -12 -5z"/>
<path d="M941 303 c-1 -34 -4 -70 -8 -80 -3 -10 -2 -15 3 -10 21 20 31 82 18
117 -12 35 -12 35 -13 -27z"/>
<path d="M1480 353 c0 -4 12 -13 26 -20 22 -10 25 -9 22 5 -3 17 -48 31 -48
15z"/>
<path d="M2294 351 c-2 -2 -4 -13 -4 -23 0 -15 8 -18 45 -18 33 0 45 4 45 15
0 8 0 18 0 21 0 7 -79 12 -86 5z"/>
<path d="M2746 345 c-4 -10 -20 -15 -51 -15 -25 0 -45 -4 -45 -9 0 -17 81 -10
102 9 11 10 15 21 10 24 -6 3 -12 -1 -16 -9z"/>
<path d="M2812 349 c2 -6 8 -10 13 -10 5 0 11 4 13 10 2 6 -4 11 -13 11 -9 0
-15 -5 -13 -11z"/>
<path d="M3006 329 c-3 -17 -6 -62 -6 -100 0 -55 3 -69 15 -69 12 0 15 18 15
100 0 98 -11 131 -24 69z"/>
<path d="M882 335 c-5 -46 -24 -95 -37 -95 -11 0 -15 -12 -15 -44 l0 -44 42
15 c58 20 65 25 42 33 -16 6 -20 20 -25 81 -3 41 -6 65 -7 54z"/>
<path d="M1338 303 c-39 -54 -88 -96 -126 -108 -33 -10 -22 -29 19 -33 52 -4
85 12 119 60 36 50 46 82 33 110 -8 19 -12 17 -45 -29z"/>
<path d="M1571 323 c0 -25 1 -26 9 -8 12 27 12 35 0 35 -5 0 -10 -12 -9 -27z"/>
<path d="M1011 324 c0 -11 3 -14 6 -6 3 7 2 16 -1 19 -3 4 -6 -2 -5 -13z"/>
<path d="M1054 331 c-9 -10 -3 -41 12 -55 11 -12 36 -16 93 -16 70 0 80 2 111
29 19 16 33 31 30 34 -6 6 -240 14 -246 8z"/>
<path d="M3190 250 c0 -53 4 -90 10 -90 6 0 10 37 10 90 0 53 -4 90 -10 90 -6
0 -10 -37 -10 -90z"/>
<path d="M1480 302 c0 -18 6 -22 28 -21 15 0 20 3 12 6 -8 3 -21 12 -27 21
-11 14 -13 13 -13 -6z"/>
<path d="M1026 256 c5 -43 4 -46 -18 -46 -16 0 -30 -10 -42 -31 -23 -39 -113
-84 -133 -67 -8 6 -35 12 -61 12 l-47 1 -5 50 c-4 37 -9 51 -22 53 -14 3 -18
-3 -18 -27 0 -16 5 -33 10 -36 6 -3 10 -26 10 -50 0 -54 9 -60 107 -69 84 -8
119 3 176 58 20 20 43 36 51 36 22 0 27 41 11 99 -18 69 -25 75 -19 17z"/>
<path d="M2745 290 c-4 -6 7 -10 24 -10 17 0 31 5 31 10 0 6 -11 10 -24 10
-14 0 -28 -4 -31 -10z"/>
<path d="M1950 280 c0 -5 14 -10 30 -10 17 0 30 5 30 10 0 6 -13 10 -30 10
-16 0 -30 -4 -30 -10z"/>
<path d="M2070 280 c0 -5 14 -10 30 -10 17 0 30 5 30 10 0 6 -13 10 -30 10
-16 0 -30 -4 -30 -10z"/>
<path d="M2680 270 c0 -5 7 -10 15 -10 8 0 15 5 15 10 0 6 -7 10 -15 10 -8 0
-15 -4 -15 -10z"/>
<path d="M768 214 c5 -66 7 -66 15 4 4 37 3 52 -6 52 -8 0 -11 -17 -9 -56z"/>
<path d="M2290 216 c0 -24 -3 -53 -6 -63 -4 -10 17 5 45 34 28 29 51 57 51 63
0 5 -20 10 -45 10 l-45 0 0 -44z"/>
<path d="M1396 231 c-3 -9 0 -33 7 -53 l13 -37 12 33 c7 18 12 39 12 48 0 22
-38 30 -44 9z"/>
<path d="M1480 229 c0 -5 5 -7 12 -3 6 4 17 -1 25 -11 12 -18 13 -18 13 3 0
17 -6 22 -25 22 -14 0 -25 -5 -25 -11z"/>
<path d="M1963 233 c9 -2 25 -2 35 0 9 3 1 5 -18 5 -19 0 -27 -2 -17 -5z"/>
<path d="M2083 233 c9 -2 25 -2 35 0 9 3 1 5 -18 5 -19 0 -27 -2 -17 -5z"/>
<path d="M2726 231 c-4 -5 12 -7 36 -4 57 8 61 13 10 13 -22 0 -43 -4 -46 -9z"/>
<path d="M1620 184 c0 -29 3 -35 16 -30 9 3 24 6 35 6 14 0 19 7 19 30 0 28
-3 30 -35 30 -34 0 -35 -2 -35 -36z"/>
<path d="M1938 153 c7 -3 16 -2 19 1 4 3 -2 6 -13 5 -11 0 -14 -3 -6 -6z"/>
<path d="M2785 150 c-3 -5 1 -10 10 -10 9 0 13 5 10 10 -3 6 -8 10 -10 10 -2
0 -7 -4 -10 -10z"/>
</g>
</svg>
